<svg height='100px' width='100px'  fill="#000000" xmlns:x="http://ns.adobe.com/Extensibility/1.0/" xmlns:i="http://ns.adobe.com/AdobeIllustrator/10.0/" xmlns:graph="http://ns.adobe.com/Graphs/1.0/" xmlns="http://www.w3.org/2000/svg" xmlns:xlink="http://www.w3.org/1999/xlink" xmlns:a="http://ns.adobe.com/AdobeSVGViewerExtensions/3.0/" i:viewOrigin="5.4502 94.5498" i:rulerOrigin="0 0" i:pageBounds="0 100 100 0" viewBox="0 0 90.1 90.1" overflow="visible" enable-background="new 0 0 90.1 90.1" xml:space="preserve" x="0px" y="0px"><metadata><variableSets xmlns="http://ns.adobe.com/Variables/1.0/"><variableSet varSetName="binding1" locked="none"><variables></variables><v:sampleDataSets xmlns="http://ns.adobe.com/GenericCustomNamespace/1.0/" xmlns:v="http://ns.adobe.com/Variables/1.0/"></v:sampleDataSets></variableSet></variableSets><sfw xmlns="http://ns.adobe.com/SaveForWeb/1.0/"><slices></slices><sliceSourceBounds x="5.45" y="4.45" width="90.1" height="90.1" bottomLeftOrigin="true"></sliceSourceBounds></sfw><x:xmpmeta xmlns:x="adobe:ns:meta/" x:xmptk="XMP toolkit 3.0-29, framework 1.6"></x:xmpmeta><?xpacket begin='&#65279;' id='W5M0MpCehiHzreSzNTczkc9d'?><x:xmpmeta xmlns:x="adobe:ns:meta/" x:xmptk="XMP toolkit 3.0-29, framework 1.6"></x:xmpmeta><?xpacket end='w'?></metadata><g><g i:extraneous="self"><g i:layer="yes" i:visible="no" i:editable="no" i:dimmedPercent="50" i:rgbTrio="#4F008000FFFF" display="none"><rect x="0.05" y="0.05" i:knockout="Off" display="inline" fill="none" stroke="#000000" stroke-width="0.1" width="90" height="90"></rect></g><g i:layer="yes" i:dimmedPercent="3" i:rgbTrio="#FFFF4F004F00"><path i:knockout="Off" d="M44.043,26.313c1.625-1.063,4.89-2.425,5.834-4.705c0.949,0.001,1.584,0.002,1.64,0.002       c0.833,0.756,37.611,34.236,37.611,34.236c0.207,0.188,0.709,0.674,0.709,0.674l-0.004-4.065L52.671,18.627l-14.445-0.019       L37.8,18.995L0.3,53.036v4.03c0.049-0.046,0.716-0.652,0.992-0.903c0,0,37.248-33.812,38.084-34.569       c0.306,0.001,3.859,0.005,7.045,0.01c-0.507,0.712-0.912,1.152-1.751,1.593c-1.236,0.648-6.982,3.052-8.609,7.763       c-2.329,6.734,4.153,10.871,9.057,17.043c3.458,4.354,4.253,11.815-7.3,20.399c-1.445,1.072-5.44,3.98-5.735,8.18       c-0.347,4.891,6.913,7.837,12.642,6.485c5.612-1.32,8.84-4.725,10.776-7.804c2.901-4.616,7.702-17.512-5.465-30.914       c-5.559-5.64-9.873-8.5-10.072-11.956C39.812,29.739,42.12,27.565,44.043,26.313z"></path></g></g></g></svg>